<svg xmlns="http://www.w3.org/2000/svg" width="1600" height="1000" viewBox="0 0 1600 1000">
  <defs>
    <linearGradient id="bg" x1="0" y1="0" x2="1" y2="1">
      <stop offset="0" stop-color="#070708"/>
      <stop offset="1" stop-color="#121216"/>
    </linearGradient>
    <linearGradient id="accent" x1="0" y1="0" x2="1" y2="0">
      <stop offset="0" stop-color="#E84505"/>
      <stop offset="1" stop-color="#ff7a3c"/>
    </linearGradient>
    <radialGradient id="glow" cx="25%" cy="15%" r="60%">
      <stop offset="0" stop-color="#E84505" stop-opacity="0.18"/>
      <stop offset="1" stop-color="#E84505" stop-opacity="0"/>
    </radialGradient>
  </defs>

  <rect width="1600" height="1000" rx="48" fill="url(#bg)"/>
  <rect width="1600" height="1000" rx="48" fill="url(#glow)"/>

  <!-- Header -->
  <rect x="90" y="90" width="1420" height="92" rx="24" fill="#0e0e12" stroke="#22222a"/>
  <rect x="130" y="126" width="170" height="22" rx="11" fill="#1b1b24"/>
  <rect x="340" y="126" width="560" height="22" rx="11" fill="#16161d"/>
  <rect x="1240" y="118" width="250" height="38" rx="19" fill="url(#accent)"/>

  <!-- Layout -->
  <rect x="90" y="210" width="930" height="710" rx="32" fill="#0b0b0f" stroke="#22222a"/>
  <rect x="1050" y="210" width="460" height="330" rx="32" fill="#0b0b0f" stroke="#22222a"/>
  <rect x="1050" y="590" width="460" height="330" rx="32" fill="#0b0b0f" stroke="#22222a"/>

  <!-- Left hero -->
  <rect x="160" y="280" width="520" height="76" rx="20" fill="#f5f5f7" fill-opacity="0.06"/>
  <rect x="160" y="380" width="620" height="18" rx="9" fill="#2b2b33"/>
  <rect x="160" y="412" width="560" height="18" rx="9" fill="#2b2b33" opacity="0.9"/>
  <rect x="160" y="444" width="500" height="18" rx="9" fill="#2b2b33" opacity="0.85"/>

  <rect x="160" y="510" width="220" height="56" rx="18" fill="url(#accent)"/>
  <rect x="400" y="510" width="190" height="56" rx="18" fill="#14141c" stroke="#2a2a34"/>

  <!-- Left feature tiles -->
  <g transform="translate(160 600)">
    <rect width="780" height="260" rx="28" fill="#0e0e14" stroke="#24242b"/>
    <g transform="translate(28 28)">
      <rect width="236" height="92" rx="22" fill="#0b0b0f" stroke="#202028"/>
      <rect x="18" y="20" width="140" height="14" rx="7" fill="#2b2b33"/>
      <rect x="18" y="46" width="180" height="12" rx="6" fill="#2b2b33" opacity="0.85"/>

      <rect x="262" width="236" height="92" rx="22" fill="#0b0b0f" stroke="#202028"/>
      <rect x="280" y="20" width="140" height="14" rx="7" fill="#2b2b33"/>
      <rect x="280" y="46" width="180" height="12" rx="6" fill="#2b2b33" opacity="0.85"/>

      <rect x="524" width="236" height="92" rx="22" fill="#0b0b0f" stroke="#202028"/>
      <rect x="542" y="20" width="140" height="14" rx="7" fill="#2b2b33"/>
      <rect x="542" y="46" width="180" height="12" rx="6" fill="#2b2b33" opacity="0.85"/>

      <rect y="120" width="360" height="112" rx="24" fill="#0b0b0f" stroke="#202028"/>
      <rect x="18" y="150" width="210" height="14" rx="7" fill="#2b2b33"/>
      <rect x="18" y="178" width="280" height="12" rx="6" fill="#2b2b33" opacity="0.85"/>

      <rect x="400" y="120" width="360" height="112" rx="24" fill="#0b0b0f" stroke="#202028"/>
      <rect x="418" y="150" width="210" height="14" rx="7" fill="#2b2b33"/>
      <rect x="418" y="178" width="280" height="12" rx="6" fill="#2b2b33" opacity="0.85"/>
    </g>
  </g>

  <!-- Right cards -->
  <rect x="1100" y="270" width="360" height="16" rx="8" fill="#2b2b33"/>
  <rect x="1100" y="304" width="320" height="14" rx="7" fill="#2b2b33" opacity="0.85"/>
  <rect x="1100" y="338" width="280" height="14" rx="7" fill="#2b2b33" opacity="0.85"/>

  <rect x="1100" y="650" width="360" height="16" rx="8" fill="#2b2b33"/>
  <rect x="1100" y="684" width="320" height="14" rx="7" fill="#2b2b33" opacity="0.85"/>
  <rect x="1100" y="718" width="280" height="14" rx="7" fill="#2b2b33" opacity="0.85"/>

  <text x="120" y="965" fill="#a7a7b0" font-family="ui-sans-serif, system-ui, -apple-system" font-size="26">Sample build (demo) — Business Website</text>
</svg>
