<svg xmlns="http://www.w3.org/2000/svg" width="1600" height="900" viewBox="0 0 1600 900">
  <defs>
    <linearGradient id="bg" x1="0" y1="0" x2="1" y2="1">
      <stop offset="0" stop-color="#0b0b0c"/>
      <stop offset="1" stop-color="#121214"/>
    </linearGradient>
    <linearGradient id="accent" x1="0" y1="0" x2="1" y2="0">
      <stop offset="0" stop-color="#ff5a1f"/>
      <stop offset="1" stop-color="#ff8a4c"/>
    </linearGradient>
  </defs>
  <rect width="1600" height="900" rx="48" fill="url(#bg)"/>

  <!-- Top bar -->
  <rect x="90" y="90" width="1420" height="72" rx="18" fill="#1a1a1f" stroke="#2a2a30"/>
  <circle cx="134" cy="126" r="10" fill="#ff5a1f"/>
  <rect x="170" y="112" width="140" height="28" rx="12" fill="#22222a"/>
  <rect x="1220" y="112" width="260" height="28" rx="14" fill="url(#accent)" opacity="0.9"/>

  <!-- Hero -->
  <rect x="90" y="200" width="920" height="520" rx="28" fill="#14141a" stroke="#24242b"/>
  <rect x="140" y="260" width="360" height="18" rx="9" fill="#2b2b33"/>
  <rect x="140" y="310" width="640" height="64" rx="18" fill="#f5f5f7" opacity="0.08"/>
  <rect x="140" y="390" width="720" height="22" rx="11" fill="#f5f5f7" opacity="0.06"/>
  <rect x="140" y="430" width="620" height="22" rx="11" fill="#f5f5f7" opacity="0.06"/>
  <rect x="140" y="500" width="220" height="54" rx="18" fill="url(#accent)"/>
  <rect x="380" y="500" width="190" height="54" rx="18" fill="#22222a" stroke="#2f2f37"/>

  <!-- Side card -->
  <rect x="1040" y="200" width="470" height="250" rx="28" fill="#14141a" stroke="#24242b"/>
  <rect x="1090" y="250" width="220" height="18" rx="9" fill="#2b2b33"/>
  <rect x="1090" y="290" width="370" height="18" rx="9" fill="#2b2b33"/>
  <rect x="1090" y="330" width="330" height="18" rx="9" fill="#2b2b33"/>

  <rect x="1040" y="470" width="470" height="250" rx="28" fill="#14141a" stroke="#24242b"/>
  <rect x="1090" y="520" width="270" height="18" rx="9" fill="#2b2b33"/>
  <rect x="1090" y="560" width="380" height="18" rx="9" fill="#2b2b33"/>
  <rect x="1090" y="600" width="300" height="18" rx="9" fill="#2b2b33"/>

  <!-- Label -->
  <text x="90" y="840" fill="#a7a7b0" font-family="ui-sans-serif, system-ui, -apple-system" font-size="28">Demo thumbnail — Landing Page (concept)</text>
</svg>
